<svg width="21" height="14" viewBox="0 0 21 14" fill="none" xmlns="http://www.w3.org/2000/svg">
<path d="M21 7C21 7.42952 20.6697 7.77765 20.2623 7.77765H2.49632L7.15012 12.6787C7.29167 12.8279 7.36458 13.0268 7.36458 13.2257C7.36458 13.4247 7.29167 13.6236 7.15012 13.7728C6.86275 14.0757 6.39522 14.0757 6.10784 13.7728L0.205883 7.54707C-0.0686283 7.25771 -0.0686283 6.74229 0.205883 6.44841L6.11213 0.227192C6.39951 -0.0757307 6.86703 -0.0757307 7.15441 0.227192C7.44179 0.530115 7.44179 1.02293 7.15441 1.32585L2.5049 6.22687H20.2665C20.674 6.22235 21 6.57048 21 7Z" fill="black"/>
</svg>
