<svg width="39" height="25" viewBox="0 0 39 25" fill="none" xmlns="http://www.w3.org/2000/svg">
<path d="M38.4465 15.3448L37.3351 14.9504C37.3207 14.8787 37.2921 14.7999 37.2562 14.7353C36.1448 12.6344 36.1448 10.5908 37.2562 8.48985C37.2634 8.48268 37.2634 8.46834 37.2706 8.46116L38.3533 8.08113C38.6043 7.99508 38.5971 7.64373 38.3461 7.56485L14.9417 0L1.16002 6.40324C1.16002 6.40324 -1.45003 10.1964 1.16002 16.2626L18.6201 24.1L38.4609 16.1766C38.8552 16.0332 38.8409 15.4811 38.4465 15.3448ZM35.1051 9.54391C34.6246 11.2505 34.7394 12.9714 35.4493 14.678L19.0289 21.0884C19.0217 21.0812 19.0217 21.0669 19.0145 21.0597C18.9715 20.9593 18.9285 20.8589 18.8926 20.7585C18.8568 20.6581 18.8209 20.5578 18.7922 20.4574C18.7851 20.443 18.7779 20.4215 18.7779 20.4072C18.7492 20.314 18.7205 20.2136 18.699 20.1204C18.6918 20.0988 18.6918 20.0845 18.6847 20.063C18.6632 19.9626 18.6416 19.8694 18.6201 19.769C18.6201 19.7547 18.613 19.7475 18.613 19.7332C18.5915 19.6399 18.5771 19.5467 18.5628 19.4535C18.5628 19.4392 18.5556 19.4248 18.5556 19.4177C18.5413 19.3244 18.5341 19.2241 18.5269 19.1308C18.5269 19.1093 18.5269 19.095 18.5197 19.0735C18.5126 18.9803 18.5054 18.8799 18.5054 18.7867C18.5054 18.7723 18.5054 18.7508 18.5054 18.7365C18.5054 18.6361 18.5054 18.5429 18.5054 18.4425C18.5054 18.4353 18.5054 18.4353 18.5054 18.4281C18.5054 18.3277 18.5126 18.2274 18.5269 18.127C18.5269 18.1126 18.5269 18.0911 18.5341 18.0768C18.5413 17.9836 18.5556 17.8832 18.5699 17.79C18.5699 17.7684 18.5771 17.7541 18.5771 17.7326C18.5915 17.6322 18.6058 17.539 18.6273 17.4386C18.6273 17.4314 18.6345 17.4171 18.6345 17.4099C18.656 17.3167 18.6775 17.2235 18.699 17.1231C18.699 17.1088 18.7062 17.0944 18.7062 17.0872C18.7349 16.9869 18.7635 16.8936 18.7922 16.7933C18.7994 16.7717 18.8066 16.7574 18.8137 16.7359C18.8424 16.6355 18.8783 16.5423 18.9141 16.4419C18.9213 16.4276 18.9285 16.4132 18.9285 16.3989C18.9643 16.2985 19.0073 16.1981 19.0504 16.0977C19.0504 16.0977 19.0504 16.0906 19.0575 16.0906C19.1006 15.9902 19.1508 15.8898 19.1938 15.7894C19.2009 15.7822 19.201 15.7679 19.2081 15.7607L35.1051 9.54391Z" fill="black"/>
</svg>
