<svg width="36" height="8" viewBox="0 0 36 8" fill="none" xmlns="http://www.w3.org/2000/svg">
<path d="M7.62137 8H9.48337L12.0454 0.663999H10.0294L8.54537 5.522L7.01937 0.663999H5.22737L3.71537 5.494L2.24537 0.663999H0.187369L2.74937 8H4.61137L6.10937 3.464H6.13737L7.62137 8ZM19.5024 8H21.3644L23.9264 0.663999H21.9104L20.4264 5.522L18.9004 0.663999H17.1084L15.5964 5.494L14.1264 0.663999H12.0684L14.6304 8H16.4924L17.9904 3.464H18.0184L19.5024 8ZM31.3834 8H33.2454L35.8074 0.663999H33.7914L32.3074 5.522L30.7814 0.663999H28.9894L27.4774 5.494L26.0074 0.663999H23.9494L26.5114 8H28.3734L29.8714 3.464H29.8994L31.3834 8Z" fill="black"/>
</svg>
